<svg xmlns="http://www.w3.org/2000/svg" width="455" height="455" version="1.1" viewBox="0 0 120.39 120.39"><g transform="translate(2.1704 -177.81)"><rect width="120.11" height="120.11" x="-2.035" y="177.94" fill="#1b0020" stroke="#000" stroke-width=".271"/><path fill="#fff4a8" d="m73.493 296.37-19.323-35.864-29.14 28.469 15.992-37.468-40.426-5.0326 39.265-10.858-21.271-34.744 32.97 23.929 13.902-38.293 1.8482 40.696 38.606-13.006-30.665 26.819 34.239 22.075-40.087-7.2539z" transform="matrix(.34721 -.017177 .017471 .34805 -6.6835 115.34)"/><path fill="#fff4a8" d="m73.493 296.37-19.323-35.864-29.14 28.469 15.992-37.468-40.426-5.0326 39.265-10.858-21.271-34.744 32.97 23.929 13.902-38.293 1.8482 40.696 38.606-13.006-30.665 26.819 34.239 22.075-40.087-7.2539z" transform="matrix(.34721 -.017177 .017471 .34805 74.966 114.33)"/><path fill="#fff4a8" d="m73.493 296.37-19.323-35.864-29.14 28.469 15.992-37.468-40.426-5.0326 39.265-10.858-21.271-34.744 32.97 23.929 13.902-38.293 1.8482 40.696 38.606-13.006-30.665 26.819 34.239 22.075-40.087-7.2539z" transform="matrix(.34721 -.017177 .017471 .34805 -5.4454 188.14)"/><path fill="#fff400" d="m73.493 296.37-19.323-35.864-29.14 28.469 15.992-37.468-40.426-5.0326 39.265-10.858-21.271-34.744 32.97 23.929 13.902-38.293 1.8482 40.696 38.606-13.006-30.665 26.819 34.239 22.075-40.087-7.2539z" transform="matrix(.99342 -.049144 .049986 .99582 -6.6246 4.0812)"/><path fill="#fff4ff" d="m73.493 296.37-19.323-35.864-29.14 28.469 15.992-37.468-40.426-5.0326 39.265-10.858-21.271-34.744 32.97 23.929 13.902-38.293 1.8482 40.696 38.606-13.006-30.665 26.819 34.239 22.075-40.087-7.2539z" transform="matrix(.51118 -.025288 .025721 .51241 26.715 119.88)"/></g></svg>