<svg xmlns="http://www.w3.org/2000/svg" xmlns:xlink="http://www.w3.org/1999/xlink" width="384" height="384" contentScriptType="text/ecmascript" contentStyleType="text/css" preserveAspectRatio="xMidYMid meet" version="1.0" viewBox="0 0 384 384" zoomAndPan="magnify"><defs><clipPath id="clip-0"><path d="M 85.296875 107.414062 L 299.046875 107.414062 L 299.046875 276.914062 L 85.296875 276.914062 Z M 85.296875 107.414062" clip-rule="nonzero"/></clipPath></defs><path fill="#0000D8" fill-opacity="1" fill-rule="nonzero" d="M 192 0 C 85.960938 0 0 85.960938 0 192 C 0 298.039062 85.960938 384 192 384 C 298.039062 384 384 298.039062 384 192 C 384 85.960938 298.039062 0 192 0 Z M 192 0"/><path fill="#0000D8" fill-opacity="1" fill-rule="nonzero" d="M 192 0 C 85.960938 0 0 85.960938 0 192 C 0 298.039062 85.960938 384 192 384 C 298.039062 384 384 298.039062 384 192 C 384 85.960938 298.039062 0 192 0 Z M 192 0"/><g clip-path="url(#clip-0)"><path fill="#FFF" fill-opacity="1" fill-rule="nonzero" d="M 85.296875 107.535156 L 85.296875 276.792969 L 153.289062 276.792969 L 153.289062 201.113281 L 105.210938 154.324219 L 153.289062 107.535156 Z M 153.289062 107.535156 L 153.289062 201.113281 L 231.054688 276.792969 L 231.054688 183.210938 Z M 231.054688 107.535156 L 231.054688 183.210938 L 279.132812 230.003906 L 231.054688 276.792969 L 299.046875 276.792969 L 299.046875 107.535156 Z M 231.054688 107.535156"/></g></svg>