<svg xmlns="http://www.w3.org/2000/svg" width="150" height="150" enable-background="new 0 0 180.9 180.4" version="1.1" viewBox="0 0 180.9 180.4" xml:space="preserve"><style type="text/css">.st3{fill:url(#a)}</style><linearGradient id="a" x1="79.514" x2="107.58" y1="43.3" y2="163.9" gradientUnits="userSpaceOnUse"><stop offset=".18" stop-color="#00FFD5"/><stop offset=".232" stop-color="#00F8D5"/><stop offset=".31" stop-color="#00E4D5"/><stop offset=".403" stop-color="#00C3D5"/><stop offset=".507" stop-color="#0096D5"/><stop offset=".622" stop-color="#005CD5"/><stop offset=".743" stop-color="#0016D5"/><stop offset=".78" stop-color="#0000D5"/></linearGradient><path d="m43.9 85.3c-1.5 2.4 0.2 5.4 3 5.4h40.5c1.3 0 2.2 1.5 1.4 2.6l-39.7 63.5c-0.4 0.7-1.3 0.9-2 0.4-22-14.2-36.6-39-36.6-67.1 0-43.3 34.4-78.5 77.3-79.8 1.1 0 1.8 1.2 1.2 2.1l-45.1 72.9zm91.3-61.3c-0.7-0.4-1.6-0.2-2 0.4l-39.1 62.7c-0.7 1.1 0.1 2.6 1.4 2.6h40.5c2.8 0 4.5 3.1 3 5.4l-45.8 73.2c-0.5 0.8 0.1 1.7 1 1.7 42.4-2 76.1-36.9 76.1-79.8 0-27.5-13.9-51.8-35.1-66.2z" class="st3"/></svg>